{"glyphs":{":":{"x_min":0,"x_max":254,"ha":254,"o":"m 15 98 q 15 117 22 136 q 29 156 44 172 q 58 189 78 200 q 99 210 126 210 q 153 210 174 200 q 195 189 210 172 q 224 156 232 136 q 239 117 239 98 q 239 76 231 56 q 223 37 208 23 q 193 9 172 0 q 151 -8 126 -8 q 102 -8 82 1 q 61 10 46 25 q 31 40 23 59 q 15 78 15 98 z m 15 402 q 15 421 22 440 q 29 460 44 476 q 58 493 78 504 q 99 514 126 514 q 153 514 174 504 q 195 493 210 476 q 224 460 232 440 q 239 421 239 402 q 239 357 210 326 q 180 296 126 296 q 103 296 82 305 q 62 314 47 329 q 32 344 24 363 q 15 382 15 402 z"},"$":{"x_min":0,"x_max":603,"ha":603,"o":"m 365 776 l 365 672 q 382 664 396 652 q 411 640 421 623 l 429 679 l 575 679 l 575 445 l 421 445 q 421 498 390 527 q 358 556 310 556 q 301 556 290 553 q 280 550 271 544 q 262 537 256 528 q 251 518 251 505 q 251 480 276 464 q 301 448 338 434 q 376 419 420 402 q 463 386 500 361 q 538 336 563 299 q 588 262 588 206 q 588 151 568 114 q 547 77 515 54 q 483 32 444 22 q 404 13 365 12 l 365 -91 l 224 -91 l 224 40 q 197 55 172 77 l 161 17 l 15 17 l 15 258 l 172 258 q 172 228 186 210 q 199 191 218 180 q 237 170 258 166 q 279 163 293 162 q 304 162 316 164 q 329 166 340 171 q 351 176 358 186 q 366 196 366 211 q 366 229 342 242 q 318 255 282 268 q 246 281 204 297 q 161 313 125 339 q 89 365 65 402 q 41 440 41 496 q 41 546 58 582 q 75 618 102 642 q 128 665 160 678 q 193 690 224 692 l 224 776 z"},"?":{"x_min":0,"x_max":520,"ha":520,"o":"m 2 586 q 55 647 121 681 q 187 715 262 715 q 312 715 356 702 q 399 689 431 663 q 463 637 482 599 q 500 561 500 510 q 500 477 488 452 q 476 428 458 408 q 441 388 420 372 q 400 357 382 344 q 365 330 353 316 q 341 303 341 288 l 341 233 l 156 233 l 155 313 q 155 336 167 356 q 179 376 196 394 q 214 411 234 426 q 255 442 272 456 q 290 471 302 484 q 314 498 314 512 q 314 526 308 535 q 301 544 290 550 q 280 555 266 557 q 253 559 240 559 q 224 559 206 552 q 189 545 172 533 q 154 521 138 506 q 123 492 110 477 z m 129 102 q 129 82 138 64 q 146 45 162 31 q 177 17 198 8 q 219 -1 243 -1 q 298 -1 330 30 q 362 60 362 102 q 362 123 354 142 q 345 162 329 176 q 313 191 292 200 q 270 208 243 208 q 216 208 195 198 q 174 189 159 174 q 144 159 136 140 q 129 121 129 102 z"},"<":{"x_min":0,"x_max":549,"ha":549,"o":"m 35 464 l 465 641 l 514 519 l 208 402 l 514 284 l 465 162 l 35 339 z"},"'":{"x_min":0,"x_max":273,"ha":273,"o":"m 234 701 l 198 402 l 73 402 l 36 701 z"},"=":{"x_min":0,"x_max":462,"ha":462,"o":"m 25 305 l 437 305 l 437 172 l 25 172 z m 25 526 l 437 526 l 437 393 l 25 393 z"},"a":{"x_min":0,"x_max":600,"ha":600,"o":"m 36 458 q 51 467 74 479 q 97 491 126 502 q 154 514 186 522 q 219 529 254 529 q 299 529 347 520 q 395 510 434 486 q 474 463 500 423 q 525 383 525 323 l 525 128 l 585 128 l 585 0 l 371 0 l 347 45 q 333 26 316 14 q 298 1 280 -6 q 261 -13 243 -16 q 225 -19 212 -19 q 176 -19 141 -9 q 106 1 78 21 q 50 41 32 72 q 15 104 15 148 q 15 190 32 224 q 48 258 76 282 q 105 306 143 319 q 181 332 223 332 q 245 332 262 328 q 280 323 292 317 q 305 311 312 305 q 320 299 322 297 l 322 332 q 322 366 295 377 q 268 388 227 388 q 182 388 144 373 q 107 358 78 342 z m 258 111 q 281 111 298 122 q 315 133 322 144 l 322 182 q 321 184 318 188 q 314 193 307 198 q 300 203 290 207 q 279 211 263 211 q 233 211 219 196 q 205 181 205 158 q 205 137 220 124 q 235 111 258 111 z"},"L":{"x_min":0,"x_max":610,"ha":610,"o":"m 25 699 l 341 699 l 341 567 l 288 567 l 288 133 l 417 133 l 417 260 l 585 260 l 585 0 l 25 0 l 25 133 l 80 133 l 80 567 l 25 567 z"},"3":{"x_min":0,"x_max":540,"ha":540,"o":"m 248 -13 q 212 -13 177 -4 q 142 6 110 22 q 79 37 54 58 q 30 78 15 100 l 117 206 q 145 178 176 160 q 206 141 249 141 q 291 141 315 160 q 339 180 339 218 q 339 259 316 275 q 294 291 256 291 l 181 291 l 181 410 l 254 410 q 290 410 314 428 q 339 445 339 479 q 339 499 331 514 q 323 529 310 538 q 298 548 282 553 q 267 558 251 558 q 222 558 191 542 q 160 526 134 498 l 37 615 q 50 630 72 646 q 95 663 124 677 q 152 691 184 700 q 217 710 251 710 q 312 710 360 695 q 407 680 440 652 q 472 624 489 585 q 506 546 506 498 q 506 472 498 452 q 490 432 478 416 q 467 401 454 390 q 442 378 432 371 q 444 362 460 348 q 476 334 490 314 q 505 294 515 268 q 525 241 525 207 q 525 151 500 110 q 476 69 437 42 q 398 14 348 0 q 299 -13 248 -13 z"},";":{"x_min":0,"x_max":302,"ha":302,"o":"m 59 385 q 59 404 66 424 q 74 445 88 462 q 102 478 124 488 q 145 499 172 499 q 199 499 220 488 q 242 478 257 462 q 272 445 280 424 q 287 404 287 385 q 287 340 256 308 q 226 277 172 277 q 148 277 128 286 q 107 296 92 311 q 77 326 68 346 q 59 365 59 385 z m 5 -129 q 32 -96 52 -62 q 71 -28 83 10 q 95 49 100 94 q 104 139 100 196 l 282 148 q 285 51 241 -37 q 197 -125 120 -194 z"},"J":{"x_min":0,"x_max":463,"ha":463,"o":"m 20 -61 q 39 -70 65 -70 q 102 -70 125 -38 q 148 -6 148 74 l 148 568 l 62 568 l 62 699 l 438 699 l 438 568 l 355 568 l 355 74 q 355 8 340 -44 q 325 -96 292 -132 q 258 -167 204 -186 q 150 -204 73 -204 q 59 -204 46 -201 q 32 -198 21 -193 z"},"V":{"x_min":0,"x_max":773,"ha":773,"o":"m 425 224 q 427 245 436 279 q 446 313 461 351 l 552 569 l 500 569 l 499 699 l 783 699 l 783 569 l 734 569 l 494 0 l 310 0 l 45 569 l -10 569 l -10 699 l 359 699 l 358 569 l 304 569 l 389 345 q 401 308 410 276 q 418 245 420 224 z"},"\"":{"x_min":0,"x_max":504,"ha":504,"o":"m 227 701 l 197 402 l 72 402 l 35 701 z m 469 701 l 433 402 l 308 402 l 277 701 z"},"7":{"x_min":0,"x_max":566,"ha":566,"o":"m 15 699 l 556 699 l 556 566 l 287 0 l 71 0 l 339 566 l 175 566 l 175 501 l 15 501 z"},"S":{"x_min":0,"x_max":710,"ha":710,"o":"m 25 0 l 25 252 l 211 252 q 211 220 225 201 q 239 182 258 172 q 278 161 300 157 q 321 153 337 152 q 350 152 365 154 q 380 156 392 162 q 405 167 414 176 q 422 186 422 202 q 422 221 394 234 q 365 246 322 258 q 280 270 230 286 q 180 301 138 328 q 95 355 66 396 q 38 438 38 502 q 38 557 62 598 q 85 639 120 665 q 156 691 198 704 q 239 717 276 717 q 307 717 338 712 q 369 706 397 694 q 425 682 448 662 q 470 643 485 615 l 495 699 l 667 699 l 667 448 l 486 448 q 486 476 476 498 q 466 519 448 534 q 431 549 408 556 q 384 564 358 564 q 347 564 335 560 q 323 557 312 550 q 302 544 296 534 q 289 524 289 511 q 289 485 318 468 q 348 451 392 436 q 436 421 487 404 q 538 386 582 360 q 626 334 656 295 q 685 256 685 197 q 685 138 660 98 q 636 58 598 32 q 559 7 512 -4 q 465 -15 420 -15 q 382 -15 350 -7 q 318 1 292 14 q 266 27 246 44 q 225 60 211 77 l 200 0 z"},"Z":{"x_min":0,"x_max":714,"ha":714,"o":"m 31 436 l 31 699 l 687 699 l 689 566 l 323 132 l 508 132 l 509 260 l 686 260 l 686 0 l 25 0 l 25 130 l 389 567 l 200 566 l 201 436 z"},"x":{"x_min":0,"x_max":649,"ha":649,"o":"m 375 500 l 630 500 l 630 375 l 564 375 l 458 268 l 584 124 l 631 124 l 631 0 l 312 0 l 312 124 l 359 124 l 283 205 l 211 124 l 276 124 l 276 0 l 20 0 l 20 124 l 87 124 l 189 239 l 65 375 l 20 375 l 20 500 l 344 500 l 344 375 l 297 375 l 367 299 l 442 375 l 375 375 z"},")":{"x_min":0,"x_max":388,"ha":388,"o":"m 128 814 q 159 787 200 738 q 240 689 276 624 q 313 559 338 479 q 363 399 363 311 q 363 225 342 147 q 320 69 286 2 q 252 -65 210 -119 q 168 -173 128 -210 l 25 -103 q 47 -77 74 -40 q 101 -4 124 46 q 147 97 163 162 q 179 227 179 311 q 179 392 162 456 q 144 520 120 568 q 96 617 70 652 q 43 686 25 708 z"},"&":{"x_min":0,"x_max":771,"ha":771,"o":"m 10 205 q 10 229 17 256 q 24 283 40 310 q 57 336 86 362 q 114 387 157 409 q 127 429 106 465 q 84 501 84 541 q 84 572 100 602 q 115 633 144 657 q 172 681 211 696 q 250 711 298 711 q 356 711 398 696 q 439 680 465 655 q 491 630 504 600 q 516 570 516 541 q 516 511 506 488 q 496 465 480 447 q 463 429 442 416 q 422 403 402 395 l 495 302 q 513 336 526 370 q 538 404 547 435 l 761 435 l 761 309 l 663 309 q 651 274 637 245 q 623 216 606 191 l 668 130 l 726 130 l 726 0 l 577 0 l 512 64 q 472 27 409 7 q 346 -13 275 -13 q 213 -13 164 4 q 114 21 80 50 q 46 79 28 119 q 10 159 10 205 z m 197 211 q 197 193 204 179 q 211 165 222 155 q 234 145 248 140 q 263 135 278 135 q 302 135 336 144 q 370 154 396 177 l 269 302 l 265 302 q 255 296 243 286 q 231 276 221 264 q 211 252 204 238 q 197 225 197 211 z m 355 538 q 355 560 342 580 q 329 599 297 599 q 274 599 260 582 q 247 564 247 544 q 247 528 254 516 q 260 504 269 496 q 278 487 288 481 q 299 475 307 472 q 309 471 317 476 q 325 481 334 490 q 342 499 348 512 q 355 524 355 538 z"},"_":{"x_min":0,"x_max":699,"ha":699,"o":"m 25 82 l 674 82 l 674 -1 l 25 -1 z"},"v":{"x_min":0,"x_max":613,"ha":613,"o":"m 330 162 q 330 170 332 182 q 335 195 339 210 q 343 225 348 241 q 354 257 360 272 l 408 373 l 355 373 l 355 500 l 613 500 l 613 373 l 561 373 l 388 0 l 233 0 l 47 373 l 0 373 l 0 500 l 304 500 l 304 373 l 254 373 l 300 267 q 310 238 317 208 q 324 178 326 162 z"},"O":{"x_min":0,"x_max":740,"ha":740,"o":"m 373 -18 q 295 -18 229 5 q 163 28 116 74 q 68 120 42 190 q 15 259 15 353 q 15 434 40 501 q 66 568 112 616 q 159 665 224 692 q 288 718 366 718 q 458 718 526 692 q 593 665 638 616 q 682 568 704 499 q 725 430 725 346 q 725 261 702 194 q 679 126 634 79 q 589 32 524 7 q 458 -18 373 -18 z m 373 139 q 397 139 416 154 q 434 169 448 196 q 461 223 468 261 q 475 299 475 346 q 475 391 468 431 q 462 471 448 500 q 435 530 414 547 q 394 564 365 564 q 342 564 323 548 q 304 533 290 505 q 277 477 270 438 q 262 399 262 353 q 262 304 270 264 q 279 225 294 197 q 308 169 328 154 q 349 139 373 139 z"},"(":{"x_min":0,"x_max":388,"ha":388,"o":"m 363 709 q 345 687 318 652 q 292 618 268 570 q 244 521 226 457 q 209 393 209 312 q 209 228 225 163 q 241 98 264 48 q 287 -3 314 -40 q 341 -76 363 -102 l 260 -209 q 219 -172 178 -118 q 136 -64 102 3 q 68 70 46 148 q 25 226 25 312 q 25 400 50 480 q 75 560 112 625 q 148 690 188 739 q 229 788 260 815 z"},"C":{"x_min":0,"x_max":686,"ha":686,"o":"m 671 125 q 645 97 613 72 q 581 46 543 26 q 505 7 461 -4 q 417 -16 368 -16 q 288 -16 223 8 q 158 33 112 80 q 66 126 40 192 q 15 259 15 343 q 15 429 44 498 q 73 566 118 614 q 163 661 216 686 q 270 711 319 711 q 356 711 384 702 q 411 693 430 682 q 449 670 460 658 q 470 647 473 643 l 496 699 l 653 699 l 653 415 l 474 415 q 473 439 466 462 q 459 485 446 502 q 434 520 414 530 q 395 541 368 541 q 341 541 319 526 q 297 510 282 483 q 266 456 258 420 q 249 384 249 343 q 249 306 258 272 q 268 238 286 212 q 305 186 332 170 q 359 155 395 155 q 426 155 454 169 q 482 183 503 200 q 524 218 538 234 q 551 249 554 253 z"},"W":{"x_min":0,"x_max":1015,"ha":1015,"o":"m 325 226 q 326 236 331 263 q 336 290 343 325 q 350 360 358 399 q 366 438 374 474 l 424 699 l 632 699 l 695 423 q 700 399 705 372 q 710 345 714 319 q 717 293 720 269 q 723 245 725 226 l 730 226 q 731 243 735 269 q 739 295 744 322 q 748 350 752 376 q 757 401 760 417 l 794 569 l 739 569 l 739 699 l 1025 699 l 1025 569 l 970 569 l 821 0 l 584 0 l 524 238 q 521 251 517 268 q 513 284 510 301 q 507 318 504 334 q 501 350 499 362 l 495 362 q 493 351 490 334 q 488 318 484 300 q 481 283 478 267 q 474 251 471 240 l 410 0 l 178 0 l 46 569 l -10 569 l -10 699 l 320 699 l 320 569 l 262 569 l 288 423 q 292 405 297 376 q 302 347 306 318 q 311 288 314 262 q 318 237 320 226 z"},"A":{"x_min":0,"x_max":823,"ha":823,"o":"m 808 0 l 407 0 l 407 131 l 502 131 l 481 199 l 276 199 l 255 131 l 333 131 l 333 0 l 15 0 l 15 131 l 83 131 l 218 570 l 177 570 l 177 699 l 561 699 l 738 131 l 808 131 z m 313 319 l 444 319 l 378 535 z"},"f":{"x_min":0,"x_max":386,"ha":386,"o":"m 351 628 q 343 632 330 635 q 316 638 296 638 q 264 638 264 585 l 264 500 l 355 500 l 355 370 l 264 370 l 264 131 l 324 131 l 324 0 l 26 0 l 26 131 l 66 131 l 66 370 l 25 370 l 25 500 l 66 500 l 66 585 q 66 606 72 638 q 77 669 98 698 q 118 727 157 748 q 196 768 264 768 q 283 768 305 766 q 327 764 347 760 q 367 757 384 752 q 401 748 411 743 z"},"Q":{"x_min":0,"x_max":755,"ha":755,"o":"m 357 0 q 281 0 218 22 q 155 44 110 88 q 65 133 40 199 q 15 265 15 354 q 15 430 39 494 q 63 558 108 604 q 152 651 214 676 q 276 702 351 702 q 439 702 504 676 q 568 651 610 604 q 652 558 672 492 q 693 427 693 347 q 693 188 610 97 q 616 74 626 53 q 635 32 654 32 q 667 32 670 48 q 674 64 674 77 l 674 106 l 740 106 l 740 55 q 740 22 730 -8 q 721 -37 702 -58 q 684 -80 656 -92 q 627 -105 590 -105 q 559 -105 534 -96 q 509 -87 490 -72 q 471 -56 457 -36 q 443 -16 435 6 q 399 0 357 0 z m 357 347 q 389 347 417 336 q 445 325 469 308 q 470 317 470 326 q 471 336 471 347 q 471 390 462 428 q 454 466 438 494 q 422 523 400 540 q 378 556 350 556 q 327 556 306 541 q 286 526 270 499 q 254 472 244 435 q 235 398 235 354 q 235 322 239 299 q 256 317 284 332 q 312 347 357 347 z m 357 150 q 385 150 410 172 q 405 210 394 233 q 383 256 357 256 q 332 256 316 234 q 301 213 290 183 q 320 150 357 150 z"},"w":{"x_min":0,"x_max":872,"ha":872,"o":"m 284 153 q 285 168 288 193 q 290 218 294 249 q 299 280 306 316 q 314 351 325 388 l 357 500 l 542 500 l 580 370 q 589 341 596 308 q 604 276 609 246 q 614 216 618 191 q 621 166 623 153 l 625 153 q 626 165 628 184 q 631 202 634 224 q 637 246 642 268 q 646 291 652 311 l 669 370 l 628 370 l 628 500 l 872 500 l 872 370 l 831 370 l 714 0 l 503 0 l 434 226 l 362 0 l 156 0 l 43 370 l 0 370 l 0 500 l 269 500 l 269 370 l 235 370 l 257 297 q 262 279 266 258 q 271 238 274 218 q 277 198 279 181 q 281 164 282 153 z"},"-":{"x_min":0,"x_max":340,"ha":340,"o":"m 25 305 l 315 305 l 315 172 l 25 172 z"},"E":{"x_min":0,"x_max":653,"ha":653,"o":"m 25 699 l 628 699 l 628 478 l 455 478 l 455 567 l 295 567 l 295 429 l 485 429 l 485 296 l 295 296 l 295 133 l 455 133 l 455 226 l 628 226 l 628 0 l 25 0 l 25 133 l 88 133 l 88 567 l 25 567 z"},"s":{"x_min":0,"x_max":508,"ha":508,"o":"m 15 0 l 15 180 l 149 180 q 149 160 162 147 q 174 134 191 126 q 208 119 226 116 q 244 113 255 113 q 270 113 284 120 q 299 126 299 147 q 299 158 286 166 q 273 173 252 179 q 232 185 206 192 q 179 198 152 207 q 126 216 102 229 q 79 242 60 261 q 41 280 30 306 q 19 332 19 367 q 19 405 36 432 q 54 460 80 478 q 107 495 138 504 q 168 512 195 512 q 246 512 287 489 q 328 466 344 434 l 352 500 l 475 500 l 475 320 l 345 320 q 345 336 336 350 q 327 363 312 374 q 298 384 280 390 q 262 396 243 396 q 227 396 216 388 q 204 379 204 360 q 204 349 214 342 q 224 334 242 327 q 259 320 281 313 q 303 306 327 298 q 355 288 384 276 q 413 265 436 248 q 459 230 474 204 q 488 177 488 138 q 488 103 472 75 q 457 47 432 28 q 406 8 372 -2 q 338 -12 302 -12 q 248 -12 208 10 q 167 32 149 61 l 140 0 z"},">":{"x_min":0,"x_max":549,"ha":549,"o":"m 514 340 l 84 163 l 35 285 l 341 402 l 35 520 l 84 642 l 514 465 z"},"l":{"x_min":0,"x_max":332,"ha":332,"o":"m 317 0 l 25 0 l 25 131 l 68 131 l 68 621 l 26 621 l 26 750 l 258 750 l 258 131 l 317 131 z"},"8":{"x_min":0,"x_max":559,"ha":559,"o":"m 15 205 q 15 229 22 255 q 30 281 44 305 q 58 329 78 349 q 98 369 123 381 q 85 404 66 441 q 48 478 48 514 q 48 556 64 592 q 80 628 110 654 q 141 681 186 696 q 230 711 286 711 q 344 711 388 696 q 433 681 464 654 q 494 628 510 592 q 525 556 525 514 q 525 464 500 429 q 474 394 441 378 q 492 353 518 304 q 544 256 544 205 q 544 159 526 119 q 507 79 472 50 q 438 21 389 4 q 340 -13 280 -13 q 218 -13 168 4 q 119 21 85 50 q 51 79 33 119 q 15 159 15 205 z m 188 211 q 188 193 196 178 q 203 163 216 152 q 228 141 245 135 q 262 129 281 129 q 318 129 345 149 q 372 169 373 211 q 373 237 360 254 q 346 271 326 281 q 307 291 285 295 q 263 299 246 300 q 223 287 206 263 q 188 239 188 211 z m 359 522 q 359 549 336 567 q 314 585 284 585 q 255 585 234 566 q 212 547 212 522 q 212 501 223 488 q 234 476 250 469 q 265 462 282 459 q 299 456 311 456 q 330 465 344 482 q 359 499 359 522 z"},"\\":{"x_min":0,"x_max":524,"ha":524,"o":"m 377 -80 l 5 752 l 147 752 l 519 -78 z"},"e":{"x_min":0,"x_max":542,"ha":542,"o":"m 527 69 q 471 21 409 2 q 347 -18 269 -18 q 222 -18 175 -2 q 128 13 90 46 q 53 78 29 130 q 5 181 5 253 q 5 314 26 362 q 47 411 83 445 q 119 479 168 496 q 217 514 274 514 q 319 514 358 503 q 396 492 427 473 q 458 454 480 427 q 502 400 513 369 q 517 356 521 336 q 525 316 526 293 q 528 270 526 246 q 523 221 515 200 l 200 200 q 202 190 206 176 q 211 162 222 149 q 233 136 252 127 q 271 118 303 118 q 316 118 332 119 q 347 120 365 125 q 383 130 403 140 q 423 149 443 166 z m 280 379 q 257 379 242 370 q 228 361 220 348 q 211 336 208 322 q 204 308 203 299 l 354 299 q 354 313 351 328 q 348 342 340 354 q 333 365 318 372 q 304 379 280 379 z"},"b":{"x_min":0,"x_max":656,"ha":656,"o":"m 31 0 l 31 130 l 73 130 l 73 619 l 31 619 l 31 750 l 273 750 l 273 461 q 281 471 296 480 q 310 488 328 494 q 346 501 366 504 q 386 508 404 508 q 461 508 504 486 q 548 464 577 428 q 606 391 620 344 q 635 296 634 246 q 633 188 616 140 q 600 93 570 60 q 540 26 498 8 q 456 -11 403 -11 q 374 -11 354 -8 q 334 -4 319 2 q 304 9 292 17 q 281 25 271 34 l 256 0 z m 414 244 q 414 266 409 288 q 404 311 394 328 q 385 345 372 356 q 358 367 342 367 q 327 367 314 358 q 300 349 290 332 q 280 316 274 292 q 269 269 271 239 q 271 213 277 192 q 283 170 293 154 q 303 137 316 128 q 329 119 343 119 q 375 119 394 153 q 414 187 414 244 z"},"%":{"x_min":0,"x_max":931,"ha":931,"o":"m 714 0 q 669 0 631 14 q 593 29 566 56 q 539 83 524 121 q 508 159 508 207 q 508 253 525 290 q 542 328 570 355 q 599 382 635 396 q 671 411 710 411 q 808 411 862 355 q 916 299 916 204 q 916 160 902 122 q 889 85 864 58 q 838 31 800 16 q 762 0 714 0 z m 221 306 q 176 306 138 320 q 100 335 73 362 q 46 389 30 427 q 15 465 15 513 q 15 559 32 596 q 49 634 78 661 q 106 688 142 702 q 178 717 217 717 q 315 717 369 661 q 423 605 423 510 q 423 466 410 428 q 396 391 370 364 q 345 337 307 322 q 269 306 221 306 z m 189 0 l 621 699 l 735 699 l 302 0 z m 714 92 q 737 92 752 122 q 766 152 766 204 q 766 255 750 286 q 734 317 711 317 q 692 318 674 289 q 657 260 657 207 q 657 153 676 122 q 694 92 714 92 z m 221 398 q 244 398 258 428 q 273 458 273 510 q 273 561 257 592 q 241 623 218 623 q 199 624 182 595 q 164 566 164 513 q 164 459 182 428 q 201 398 221 398 z"},"m":{"x_min":0,"x_max":908,"ha":908,"o":"m 322 0 l 25 0 l 25 131 l 67 131 l 67 367 l 25 367 l 25 499 l 214 499 l 236 440 q 242 447 254 460 q 265 472 281 484 q 297 496 317 504 q 337 513 361 513 q 399 513 424 505 q 450 497 467 486 q 484 475 494 462 q 504 450 510 441 q 533 467 569 490 q 605 513 657 513 q 718 513 754 492 q 791 472 811 438 q 831 405 838 362 q 844 319 844 273 l 844 135 l 893 135 l 893 0 l 639 0 l 639 245 q 639 263 640 284 q 640 306 638 325 q 635 344 627 356 q 619 369 601 369 q 569 369 558 348 q 548 328 548 296 l 548 134 l 608 134 l 608 0 l 349 0 l 349 255 q 349 316 343 342 q 337 369 307 369 q 283 369 272 354 q 262 340 262 309 l 262 131 l 322 131 z"},"#":{"x_min":0,"x_max":750,"ha":750,"o":"m 70 569 l 224 569 l 271 752 l 403 752 l 356 569 l 490 569 l 537 752 l 669 752 l 622 569 l 735 569 l 735 433 l 588 433 l 559 319 l 680 319 l 680 183 l 524 183 l 478 -1 l 346 1 l 392 183 l 258 183 l 212 -1 l 80 1 l 126 183 l 15 183 l 15 319 l 161 319 l 190 433 l 70 433 z m 293 319 l 427 319 l 456 433 l 322 433 z"},",":{"x_min":0,"x_max":272,"ha":272,"o":"m -6 -129 q 21 -96 40 -62 q 60 -28 72 10 q 84 49 88 94 q 93 139 89 196 l 271 148 q 274 51 230 -37 q 186 -125 109 -194 z"},"n":{"x_min":0,"x_max":647,"ha":647,"o":"m 333 0 l 25 0 l 25 131 l 67 131 l 67 370 l 25 370 l 25 500 l 238 500 l 261 438 q 287 473 322 496 q 356 518 404 518 q 462 518 498 498 q 533 479 552 448 q 572 416 578 376 q 585 337 585 298 l 585 131 l 632 131 l 632 0 l 380 0 l 380 273 q 380 286 380 302 q 379 318 374 332 q 369 346 358 356 q 346 366 324 366 q 305 366 292 358 q 280 349 273 336 q 266 322 264 306 q 261 289 261 273 l 261 131 l 333 131 z"},"h":{"x_min":0,"x_max":661,"ha":661,"o":"m 339 0 l 25 0 l 25 131 l 67 131 l 67 620 l 25 620 l 25 750 l 267 750 l 267 438 q 271 445 286 458 q 301 471 322 484 q 344 498 370 508 q 397 518 424 518 q 482 518 516 498 q 551 479 570 448 q 588 416 594 376 q 599 337 599 298 l 599 131 l 646 131 l 646 0 l 389 0 l 389 272 q 389 285 388 301 q 387 317 382 331 q 376 345 364 355 q 352 365 330 365 q 311 365 298 356 q 286 348 279 334 q 272 321 270 304 q 267 288 267 272 l 267 131 l 339 131 z"},"z":{"x_min":0,"x_max":553,"ha":553,"o":"m 25 300 l 25 500 l 520 500 l 520 371 l 282 131 l 387 131 l 387 199 l 528 199 l 528 0 l 25 0 l 25 131 l 266 371 l 155 371 l 155 300 z"},"B":{"x_min":0,"x_max":687,"ha":687,"o":"m 25 0 l 25 130 l 83 130 l 83 570 l 25 570 l 25 699 l 398 699 q 523 699 583 654 q 643 610 643 528 q 643 496 638 472 q 633 449 622 430 q 611 412 592 398 q 573 384 545 373 q 572 365 596 352 q 620 338 638 317 q 656 296 666 268 q 677 239 677 203 q 677 97 614 48 q 550 0 405 0 z m 370 130 q 402 130 426 152 q 451 175 451 216 q 451 254 430 279 q 409 304 367 304 l 290 304 l 290 130 z m 290 567 l 290 417 l 351 417 q 391 417 405 438 q 419 458 419 494 q 419 529 400 548 q 382 567 353 567 z"},"K":{"x_min":0,"x_max":815,"ha":815,"o":"m 340 570 l 286 570 l 286 407 l 472 570 l 400 570 l 400 699 l 733 699 l 733 570 l 675 570 l 530 445 l 732 130 l 790 130 l 790 0 l 400 0 l 400 130 l 468 130 l 360 300 l 286 237 l 286 130 l 340 130 l 340 0 l 25 0 l 25 130 l 79 130 l 79 570 l 25 570 l 25 699 l 340 699 z"},"R":{"x_min":0,"x_max":737,"ha":737,"o":"m 25 699 l 350 699 q 437 699 491 683 q 545 667 576 639 q 606 611 616 574 q 627 536 627 493 q 627 464 616 439 q 605 414 586 396 q 566 377 540 364 q 513 352 482 348 q 508 344 532 332 q 555 319 573 300 q 591 281 602 257 q 613 233 613 206 q 613 174 618 156 q 623 138 637 138 q 660 138 660 170 l 660 203 l 727 203 l 727 148 q 727 117 720 88 q 713 59 696 37 q 679 15 651 2 q 623 -12 581 -12 q 482 -12 434 37 q 387 86 387 174 q 387 208 384 230 q 381 252 370 264 q 360 277 340 282 q 320 287 287 287 l 287 132 l 348 132 l 348 0 l 25 0 l 25 132 l 81 132 l 81 568 l 25 568 z m 287 569 l 287 399 l 332 399 q 376 399 402 420 q 428 440 428 480 q 428 525 404 547 q 381 569 337 569 z"},"T":{"x_min":0,"x_max":701,"ha":701,"o":"m 686 699 l 686 439 l 539 439 l 539 567 l 455 567 l 455 133 l 538 133 l 538 0 l 166 0 l 166 133 l 248 133 l 248 567 l 162 567 l 162 439 l 15 439 l 15 699 z"},"P":{"x_min":0,"x_max":640,"ha":640,"o":"m 25 699 l 349 699 q 436 699 490 682 q 544 664 574 634 q 604 605 614 566 q 625 528 625 485 q 625 435 604 398 q 583 361 547 336 q 511 312 464 300 q 416 287 362 287 l 286 287 l 286 132 l 347 132 l 347 0 l 25 0 l 25 132 l 81 132 l 81 568 l 25 568 z m 286 569 l 286 395 l 331 395 q 375 395 402 416 q 429 438 429 478 q 429 523 404 546 q 380 569 336 569 z"},"|":{"x_min":0,"x_max":333,"ha":333,"o":"m 233 701 l 233 -204 l 100 -204 l 100 701 z"},"t":{"x_min":0,"x_max":363,"ha":363,"o":"m 15 500 l 69 500 l 69 592 l 253 651 l 253 500 l 348 500 l 348 370 l 253 370 l 253 192 q 253 179 252 165 q 252 151 254 139 q 257 127 264 120 q 270 112 285 112 q 295 112 314 118 q 334 123 348 129 l 348 1 q 337 -4 320 -8 q 303 -11 285 -13 q 267 -15 252 -16 q 236 -18 227 -18 q 171 -18 140 -3 q 108 12 93 39 q 78 66 74 105 q 70 144 69 192 l 69 370 l 15 370 z"},"M":{"x_min":0,"x_max":1008,"ha":1008,"o":"m 719 523 q 716 506 712 486 q 708 466 704 448 q 700 429 696 414 q 693 398 690 389 l 585 0 l 376 0 q 348 100 320 200 q 292 299 264 399 q 262 405 259 418 q 256 432 253 449 q 250 466 247 485 q 244 504 243 523 l 239 523 l 239 129 l 296 129 l 296 0 l 25 0 l 25 129 l 79 129 l 79 570 l 26 570 l 26 699 l 405 699 l 506 325 l 602 699 l 983 699 l 983 570 l 928 570 l 928 130 l 983 130 l 983 0 l 667 0 l 667 130 l 724 130 l 723 464 l 723 523 z"},"g":{"x_min":0,"x_max":640,"ha":640,"o":"m 77 -6 q 86 -14 104 -24 q 121 -35 144 -46 q 167 -56 194 -63 q 222 -70 251 -70 q 285 -70 307 -61 q 329 -52 342 -38 q 356 -25 362 -8 q 367 8 367 24 l 367 58 q 362 51 352 42 q 342 32 328 24 q 313 15 294 9 q 274 3 250 3 q 185 3 140 24 q 94 46 66 81 q 37 116 24 161 q 10 206 10 253 q 10 311 26 358 q 42 406 74 440 q 105 473 152 492 q 199 510 261 510 q 294 510 323 497 q 352 484 367 469 l 387 500 l 625 500 l 625 369 l 565 369 l 565 70 q 565 8 546 -42 q 527 -93 488 -129 q 449 -165 390 -185 q 332 -205 253 -205 q 212 -205 176 -196 q 141 -187 112 -174 q 82 -161 60 -146 q 38 -130 24 -117 z m 223 255 q 223 232 228 210 q 233 188 242 171 q 252 154 265 143 q 278 132 295 132 q 310 132 324 141 q 337 150 347 166 q 357 183 362 206 q 367 230 366 260 q 366 285 360 307 q 354 329 344 346 q 334 362 321 371 q 308 380 294 380 q 262 380 242 346 q 223 312 223 255 z"},"j":{"x_min":0,"x_max":360,"ha":360,"o":"m 128 370 l 86 370 l 86 500 l 318 500 l 318 70 q 318 23 308 -26 q 298 -75 266 -116 q 234 -157 174 -183 q 114 -209 14 -209 l 14 -75 q 57 -75 80 -59 q 104 -43 114 -20 q 125 2 126 27 q 128 52 128 70 z m 114 646 q 114 663 121 681 q 128 699 142 714 q 155 729 176 738 q 196 748 222 748 q 248 748 268 738 q 289 729 303 714 q 317 699 324 681 q 332 663 332 646 q 332 604 304 574 q 276 545 222 545 q 198 545 178 554 q 159 563 144 578 q 130 592 122 610 q 114 628 114 646 z"},"i":{"x_min":0,"x_max":330,"ha":330,"o":"m 305 0 l 25 0 l 25 131 l 67 131 l 67 370 l 25 370 l 25 500 l 257 500 l 257 131 l 305 131 z m 53 646 q 53 663 60 681 q 67 699 80 714 q 94 729 114 738 q 135 748 161 748 q 187 748 208 738 q 228 729 242 714 q 256 699 264 681 q 271 663 271 646 q 271 604 243 574 q 215 545 161 545 q 137 545 118 554 q 98 563 84 578 q 69 592 61 610 q 53 628 53 646 z"},"y":{"x_min":0,"x_max":580,"ha":580,"o":"m 382 373 l 336 373 l 336 500 l 590 500 l 590 376 l 542 376 l 352 -86 q 341 -109 326 -134 q 312 -159 288 -180 q 264 -201 228 -214 q 191 -227 137 -227 q 98 -225 68 -211 q 39 -197 16 -177 l 91 -59 q 104 -70 118 -80 q 133 -90 149 -93 q 161 -95 171 -92 q 181 -88 189 -80 q 197 -72 203 -62 q 209 -51 213 -40 l 227 2 l 32 372 l -9 372 l -9 500 l 299 500 l 299 373 l 252 373 l 317 217 z"},"@":{"x_min":0,"x_max":779,"ha":779,"o":"m 389 451 q 420 451 444 436 q 469 421 487 399 l 493 439 l 592 426 l 552 141 q 553 141 553 140 q 567 132 574 130 q 582 128 590 128 q 620 128 640 144 q 659 159 670 182 q 682 204 686 230 q 691 255 691 275 q 691 332 670 381 q 648 430 608 467 q 567 504 510 525 q 452 546 379 546 q 303 546 248 514 q 194 483 158 436 q 123 388 106 332 q 89 276 89 227 q 89 165 113 111 q 137 57 178 16 q 220 -25 276 -48 q 333 -72 398 -72 q 455 -72 498 -61 q 541 -50 570 -36 q 604 -20 630 1 l 678 -68 q 647 -93 605 -112 q 569 -129 517 -142 q 465 -156 398 -156 q 321 -156 250 -128 q 179 -101 124 -51 q 70 -1 38 70 q 5 141 5 227 q 5 269 14 315 q 24 361 44 406 q 64 451 94 492 q 125 532 166 563 q 208 594 261 612 q 314 631 379 631 q 471 631 544 603 q 618 575 669 527 q 720 479 747 414 q 774 349 774 275 q 774 243 766 202 q 758 162 737 126 q 716 91 680 67 q 645 43 590 43 q 549 48 530 56 q 511 65 500 76 q 461 47 430 38 q 399 28 368 28 q 335 28 302 42 q 270 57 244 84 q 219 111 203 148 q 187 186 187 232 q 187 266 200 305 q 213 344 238 376 q 264 408 302 430 q 339 451 389 451 z m 471 282 q 466 291 459 303 q 452 315 442 326 q 432 336 418 344 q 405 351 389 351 q 366 351 349 340 q 332 328 320 310 q 309 293 303 272 q 297 251 297 232 q 297 208 303 189 q 309 170 319 156 q 329 143 342 136 q 355 128 368 128 q 388 128 408 133 q 429 138 452 152 z"},".":{"x_min":0,"x_max":258,"ha":258,"o":"m 15 104 q 15 123 22 144 q 30 164 44 180 q 58 197 80 208 q 101 218 128 218 q 155 218 176 208 q 198 197 213 180 q 228 164 236 144 q 243 123 243 104 q 243 59 214 28 q 185 -4 128 -4 q 103 -4 82 6 q 62 15 47 30 q 32 45 24 64 q 15 84 15 104 z"},"p":{"x_min":0,"x_max":638,"ha":638,"o":"m 413 244 q 413 266 408 288 q 403 311 394 328 q 384 345 370 356 q 357 367 341 367 q 326 367 312 358 q 299 349 289 332 q 279 316 274 292 q 268 269 270 239 q 270 213 276 192 q 282 170 292 154 q 302 137 315 128 q 328 119 342 119 q 374 119 394 153 q 413 187 413 244 z m 25 -73 l 67 -73 l 67 367 l 25 367 l 25 500 l 254 500 l 271 465 q 278 470 290 478 q 301 485 316 492 q 331 498 350 503 q 369 508 392 508 q 450 508 494 487 q 539 466 568 430 q 598 394 613 346 q 628 299 628 246 q 628 186 610 138 q 593 91 562 58 q 532 25 490 7 q 448 -11 400 -11 q 369 -11 346 -6 q 322 -1 306 6 q 291 13 282 20 q 273 26 270 28 l 270 -73 l 324 -73 l 324 -204 l 25 -204 z"},"X":{"x_min":0,"x_max":835,"ha":835,"o":"m 357 0 l 25 0 l 25 129 l 112 129 l 259 320 l 78 569 l 26 569 l 26 699 l 422 699 l 422 569 l 364 569 l 462 436 l 564 569 l 476 569 l 476 699 l 808 699 l 808 569 l 723 569 l 572 376 l 752 130 l 810 130 l 810 0 l 411 0 l 411 130 l 468 130 l 392 232 l 371 260 l 268 129 l 357 129 z"},"*":{"x_min":0,"x_max":413,"ha":413,"o":"m 286 324 l 207 435 l 124 321 l 36 395 l 123 489 l 5 530 l 46 628 l 160 575 l 147 699 l 270 699 l 254 572 l 367 628 l 408 530 l 287 490 l 377 394 z"},"Y":{"x_min":0,"x_max":669,"ha":669,"o":"m 373 384 q 374 391 378 402 q 383 413 388 425 q 394 437 400 449 q 406 461 410 470 l 465 571 l 410 571 l 410 699 l 679 699 l 679 571 l 625 571 l 440 246 l 440 130 l 496 130 l 496 0 l 176 0 l 176 130 l 233 130 l 233 248 l 39 571 l -10 571 l -10 699 l 332 699 l 332 571 l 280 571 l 338 465 q 340 458 344 447 q 349 436 354 424 q 359 412 363 401 q 367 390 369 384 z"},"c":{"x_min":0,"x_max":531,"ha":531,"o":"m 360 274 q 359 292 356 310 q 352 329 345 344 q 338 360 326 370 q 314 379 297 379 q 275 379 258 368 q 242 357 231 339 q 220 321 214 298 q 209 275 209 251 q 209 202 236 168 q 264 134 312 133 q 352 132 380 148 q 408 163 433 190 l 521 88 q 503 69 478 50 q 453 32 422 18 q 390 4 353 -5 q 316 -14 276 -14 q 221 -14 171 2 q 121 19 84 52 q 46 86 24 136 q 1 186 1 253 q 1 319 22 368 q 42 416 76 448 q 110 479 154 494 q 199 509 247 509 q 272 509 292 503 q 313 497 328 488 q 344 479 355 469 q 366 459 372 452 l 389 500 l 507 500 l 507 274 l 360 274 z"},"!":{"x_min":0,"x_max":308,"ha":308,"o":"m 28 102 q 28 121 36 140 q 43 159 58 174 q 73 189 94 198 q 115 208 142 208 q 169 208 190 200 q 212 191 228 176 q 244 162 252 142 q 261 123 261 102 q 261 60 229 30 q 197 -1 142 -1 q 118 -1 97 8 q 76 17 60 31 q 45 45 36 64 q 28 82 28 102 z m 32 509 l 32 699 l 271 699 l 271 509 l 218 257 l 86 257 z"},"/":{"x_min":0,"x_max":524,"ha":524,"o":"m 5 -78 l 377 752 l 519 752 l 147 -80 z"},"[":{"x_min":0,"x_max":720,"ha":720,"o":"m 29 700 l 353 700 q 440 700 494 680 q 548 661 578 629 q 608 597 618 556 q 629 515 629 472 q 629 416 599 374 q 569 333 521 307 l 633 130 l 691 130 l 691 0 l 499 0 l 333 268 l 290 268 l 290 132 l 351 132 l 351 0 l 29 0 l 29 132 l 85 132 l 85 568 l 29 568 z m 290 569 l 290 395 l 335 395 q 379 395 406 416 q 433 438 433 478 q 433 523 408 546 q 384 569 340 569 z"},"6":{"x_min":0,"x_max":581,"ha":581,"o":"m 478 501 q 452 516 415 534 q 378 552 332 552 q 276 550 242 511 q 209 472 201 416 q 221 436 256 450 q 292 465 332 467 q 380 469 422 454 q 465 438 497 408 q 529 379 548 337 q 566 295 566 244 q 566 194 548 149 q 531 104 498 70 q 464 35 416 14 q 368 -7 307 -9 q 245 -11 193 10 q 141 30 102 70 q 64 111 41 170 q 18 229 16 304 q 15 337 18 380 q 22 422 32 466 q 43 511 63 554 q 83 597 116 631 q 149 665 196 686 q 244 708 310 710 q 335 711 367 706 q 399 700 431 690 q 463 680 494 665 q 524 650 546 631 z m 306 323 q 288 322 272 316 q 256 310 242 302 q 229 293 219 283 q 209 273 203 266 q 203 247 208 226 q 214 206 226 188 q 237 171 254 160 q 272 148 296 148 q 315 148 332 154 q 349 161 361 173 q 373 185 380 200 q 387 216 387 234 q 387 249 382 264 q 378 280 368 294 q 359 307 344 315 q 328 323 306 323 z"},"r":{"x_min":0,"x_max":414,"ha":414,"o":"m 308 0 l 25 0 l 25 131 l 69 131 l 69 370 l 26 370 l 26 500 l 214 500 l 244 436 q 254 454 265 470 q 276 486 293 498 q 310 511 335 518 q 360 525 399 525 l 399 345 q 331 345 294 322 q 258 300 258 234 l 258 131 l 308 131 z"},"2":{"x_min":0,"x_max":590,"ha":590,"o":"m 33 586 q 86 647 152 678 q 218 710 293 710 q 343 710 386 695 q 430 680 462 652 q 494 623 512 582 q 531 542 531 491 q 531 448 521 417 q 511 386 491 362 q 471 337 441 315 q 411 293 371 267 q 353 255 330 238 q 308 222 286 204 q 265 185 248 166 q 230 148 221 133 l 397 133 l 397 213 l 565 213 l 565 0 l 25 0 l 25 145 q 46 179 62 202 q 78 226 94 244 q 111 263 129 280 q 147 296 171 315 q 198 339 229 359 q 260 379 286 398 q 313 418 330 438 q 348 459 348 482 q 348 520 324 534 q 299 548 264 548 q 244 548 226 540 q 209 533 194 522 q 178 511 165 498 q 152 484 141 472 z"},"9":{"x_min":0,"x_max":587,"ha":587,"o":"m 103 200 q 129 185 166 167 q 203 149 249 149 q 305 151 338 185 q 372 219 371 285 q 351 265 320 250 q 289 236 249 234 q 201 232 158 248 q 116 263 84 292 q 52 322 34 364 q 15 406 15 457 q 15 507 32 552 q 50 597 84 632 q 117 666 165 687 q 213 708 274 710 q 335 712 388 692 q 442 671 482 630 q 521 590 545 531 q 569 472 571 397 q 572 359 568 314 q 565 270 554 226 q 542 182 521 140 q 500 98 466 66 q 433 34 385 14 q 337 -7 271 -9 q 246 -10 214 -4 q 182 1 150 11 q 118 21 88 36 q 57 51 35 70 z m 275 378 q 293 379 308 385 q 322 391 334 400 q 345 408 354 418 q 363 427 369 435 q 369 454 365 474 q 361 495 351 512 q 341 530 325 542 q 309 553 285 553 q 266 553 249 546 q 232 540 220 528 q 208 516 201 500 q 194 485 194 467 q 194 452 198 436 q 203 421 212 408 q 222 394 237 386 q 252 378 275 378 z"}," ":{"x_min":0,"x_max":250,"ha":250,"o":""},"I":{"x_min":0,"x_max":382,"ha":382,"o":"m 25 699 l 357 699 l 357 567 l 295 567 l 295 133 l 357 133 l 357 0 l 25 0 l 25 133 l 88 133 l 88 567 l 25 567 z"},"H":{"x_min":0,"x_max":768,"ha":768,"o":"m 25 699 l 349 699 l 349 567 l 287 567 l 287 416 l 477 416 l 477 567 l 418 567 l 418 699 l 743 699 l 743 567 l 685 567 l 685 132 l 743 132 l 743 0 l 418 0 l 418 132 l 477 132 l 477 283 l 287 283 l 287 132 l 349 132 l 349 0 l 25 0 l 25 132 l 80 132 l 80 567 l 25 567 z"},"4":{"x_min":0,"x_max":584,"ha":584,"o":"m 10 340 l 298 699 l 505 699 l 505 305 l 558 305 l 558 197 l 505 197 l 505 132 l 559 132 l 559 0 l 235 0 l 235 132 l 298 132 l 298 197 l 10 197 z m 298 305 l 298 490 l 150 305 z"},"D":{"x_min":0,"x_max":720,"ha":720,"o":"m 25 0 l 25 133 l 87 133 l 87 567 l 25 567 l 25 699 l 330 699 q 421 699 492 672 q 562 646 610 600 q 659 555 684 493 q 710 431 710 359 q 710 187 611 94 q 512 0 326 0 z m 480 359 q 480 399 472 436 q 463 474 445 503 q 427 532 398 550 q 370 567 330 567 l 292 567 l 292 133 l 330 133 q 370 134 398 152 q 427 169 445 200 q 463 230 472 271 q 480 312 480 359 z"},"^":{"x_min":0,"x_max":597,"ha":597,"o":"m 372 700 l 587 303 l 409 303 l 300 527 l 188 303 l 10 303 l 227 700 z"},"0":{"x_min":0,"x_max":599,"ha":599,"o":"m 302 -12 q 239 -12 186 10 q 134 33 96 78 q 58 124 36 192 q 15 261 15 353 q 15 432 36 498 q 56 565 94 612 q 131 659 183 686 q 235 712 297 712 q 370 712 424 686 q 479 660 514 612 q 549 564 566 496 q 584 429 584 346 q 584 263 566 196 q 547 130 511 84 q 475 37 422 12 q 370 -12 302 -12 z m 302 143 q 319 143 334 158 q 349 172 360 198 q 371 225 377 262 q 383 300 383 346 q 383 391 376 428 q 370 466 358 493 q 346 520 330 536 q 314 551 296 551 q 282 551 268 538 q 253 524 241 498 q 229 472 221 436 q 213 399 213 353 q 213 305 222 266 q 230 227 242 200 q 255 172 271 158 q 287 143 302 143 z"},"F":{"x_min":0,"x_max":638,"ha":638,"o":"m 25 699 l 623 699 l 623 478 l 446 478 l 446 567 l 295 567 l 295 393 l 485 393 l 485 260 l 295 260 l 295 133 l 397 133 l 397 0 l 25 0 l 25 133 l 87 133 l 87 567 l 25 567 z"},"k":{"x_min":0,"x_max":654,"ha":654,"o":"m 38 0 l 38 130 l 79 130 l 79 619 l 38 619 l 38 750 l 269 750 l 269 298 l 385 367 l 313 367 l 313 499 l 593 499 l 593 367 l 516 367 l 448 324 l 583 131 l 633 131 l 633 0 l 337 0 l 337 131 l 379 131 l 303 239 l 268 215 l 268 131 l 305 131 l 305 0 z"},"u":{"x_min":0,"x_max":631,"ha":631,"o":"m 15 500 l 257 500 l 257 259 q 257 194 268 164 q 280 133 311 133 q 337 133 356 154 q 374 175 374 209 l 374 368 l 308 368 l 308 500 l 567 500 l 567 133 l 616 133 l 616 0 l 427 0 l 400 63 q 392 54 380 40 q 369 27 352 15 q 336 3 313 -6 q 290 -14 258 -14 q 201 -14 162 1 q 124 16 100 46 q 77 76 67 122 q 57 168 57 230 l 57 368 l 15 368 z"},"]":{"x_min":0,"x_max":647,"ha":647,"o":"m 30 0 l 30 130 l 71 130 l 71 619 l 30 619 l 30 750 l 261 750 l 261 298 l 377 367 l 305 367 l 305 500 l 585 500 l 585 367 l 508 367 l 445 330 l 584 131 l 625 131 l 625 0 l 463 0 l 295 239 l 260 215 l 260 131 l 331 131 l 331 0 z"},"U":{"x_min":0,"x_max":737,"ha":737,"o":"m 15 699 l 333 699 l 333 570 l 279 570 l 279 354 q 279 294 286 256 q 292 218 305 196 q 318 175 336 167 q 355 159 379 159 q 402 159 420 166 q 439 172 452 192 q 466 213 473 252 q 480 290 480 355 l 480 567 l 426 567 l 426 699 l 722 699 l 722 570 l 668 570 l 668 327 q 668 149 595 66 q 522 -17 381 -17 q 229 -12 150 70 q 71 151 71 322 l 71 569 l 15 569 z"},"o":{"x_min":0,"x_max":574,"ha":574,"o":"m 290 -13 q 236 -13 186 4 q 135 20 96 53 q 57 86 34 136 q 10 186 11 252 q 11 315 34 364 q 58 412 96 445 q 135 478 184 495 q 233 512 285 512 q 344 511 394 494 q 445 476 482 442 q 519 408 540 360 q 562 311 563 248 q 564 186 542 138 q 521 89 484 56 q 447 22 397 4 q 347 -13 290 -13 z m 290 115 q 306 115 318 125 q 331 135 340 153 q 349 171 354 196 q 358 220 358 248 q 358 305 339 343 q 320 381 285 382 q 270 382 258 372 q 245 362 236 344 q 227 326 222 302 q 216 278 216 251 q 216 189 237 152 q 258 115 290 115 z"},"N":{"x_min":0,"x_max":816,"ha":816,"o":"m 791 570 l 725 570 l 725 0 l 510 0 l 255 381 l 255 129 l 332 129 l 332 0 l 25 0 l 25 129 l 84 129 l 84 570 l 26 570 l 26 699 l 313 699 l 559 332 l 558 570 l 490 570 l 490 699 l 791 699 z"},"+":{"x_min":0,"x_max":547,"ha":547,"o":"m 522 305 l 339 305 l 339 122 l 209 122 l 209 305 l 25 305 l 25 435 l 209 435 l 209 619 l 339 619 l 339 435 l 522 435 z"},"G":{"x_min":0,"x_max":776,"ha":776,"o":"m 490 63 q 473 35 430 13 q 387 -9 329 -9 q 263 -9 206 16 q 149 40 106 86 q 64 132 40 197 q 15 262 15 343 q 15 425 41 492 q 67 560 110 608 q 153 657 208 684 q 263 711 322 711 q 376 711 411 700 q 446 689 468 675 q 489 661 500 647 q 511 633 517 627 l 538 699 l 687 699 l 687 404 l 508 404 q 507 434 498 458 q 488 482 472 498 q 456 514 436 522 q 416 531 394 531 q 364 531 338 516 q 313 500 295 474 q 277 449 267 414 q 257 380 257 343 q 257 305 266 272 q 275 238 292 213 q 310 188 336 174 q 361 159 394 159 q 437 159 458 174 q 479 188 490 208 l 490 250 l 429 250 l 429 357 l 761 357 l 761 250 l 721 250 l 721 0 l 521 0 z"},"q":{"x_min":0,"x_max":660,"ha":660,"o":"m 383 257 q 383 279 378 302 q 373 324 364 341 q 354 358 340 369 q 327 380 311 380 q 296 380 282 371 q 269 362 259 346 q 249 329 244 306 q 238 282 240 252 q 240 226 246 204 q 252 183 262 166 q 272 150 285 141 q 298 132 312 132 q 344 132 364 166 q 383 200 383 257 z m 318 -99 l 383 -99 l 383 33 q 366 19 333 5 q 300 -9 255 -9 q 207 -9 165 10 q 123 28 92 62 q 61 96 43 144 q 25 193 25 253 q 25 318 44 366 q 62 414 94 446 q 127 478 170 494 q 214 510 264 510 q 313 510 344 495 q 375 480 383 470 l 402 500 l 635 500 l 635 370 l 586 370 l 586 -96 l 635 -96 l 635 -230 l 318 -230 z"},"d":{"x_min":0,"x_max":634,"ha":634,"o":"m 368 620 l 322 620 l 322 750 l 571 750 l 571 130 l 619 130 l 619 0 l 385 0 l 368 37 q 363 32 352 24 q 342 17 326 10 q 310 2 289 -4 q 268 -9 242 -9 q 189 -9 146 12 q 103 34 73 70 q 43 107 26 155 q 10 203 10 255 q 10 313 29 360 q 48 408 80 441 q 112 474 154 492 q 196 510 242 510 q 295 510 324 496 q 354 481 368 472 z m 225 255 q 225 232 230 210 q 235 188 244 171 q 254 154 267 143 q 280 132 297 132 q 312 132 326 141 q 339 150 349 166 q 359 183 364 206 q 369 230 368 260 q 368 285 362 307 q 356 329 346 346 q 336 362 323 371 q 310 380 296 380 q 264 380 244 346 q 225 312 225 255 z"},"1":{"x_min":0,"x_max":496,"ha":496,"o":"m 25 568 q 46 578 66 588 q 86 598 106 612 q 127 625 150 646 q 173 666 200 699 l 378 699 l 378 133 l 471 133 l 471 0 l 71 0 l 71 133 l 171 133 l 171 504 l 71 457 z"},"5":{"x_min":0,"x_max":577,"ha":577,"o":"m 263 -13 q 225 -13 188 -3 q 150 7 116 24 q 83 41 56 63 q 30 85 15 108 l 124 221 q 153 191 186 169 q 220 147 264 147 q 315 147 344 175 q 374 203 374 247 q 374 267 366 284 q 358 302 344 316 q 331 329 312 336 q 293 344 272 344 q 237 344 216 330 q 194 315 178 298 l 50 355 l 111 699 l 507 699 l 507 550 l 238 550 l 221 453 q 236 463 264 470 q 292 477 329 477 q 373 477 415 462 q 457 447 490 417 q 522 387 542 342 q 562 298 562 240 q 562 177 536 130 q 509 82 466 50 q 424 19 370 3 q 317 -13 263 -13 z"}}}
